<svg xmlns="http://www.w3.org/2000/svg" viewBox="0 0 167.43 41.62"><defs><style>.cls-1,.cls-2{fill:#fff;}.cls-1{fill-rule:evenodd;}</style></defs><title>Logo horizontal cyr white</title><g id="Layer_2" data-name="Layer 2"><g id="Layer_1-2" data-name="Layer 1"><path class="cls-1" d="M10.37,38.3A1.66,1.66,0,1,0,12,40,1.66,1.66,0,0,0,10.37,38.3Z"/><path class="cls-1" d="M10.37,3.32A1.66,1.66,0,1,0,8.71,1.66,1.66,1.66,0,0,0,10.37,3.32Z"/><path class="cls-1" d="M15.88,15.62A2.06,2.06,0,0,0,17.6,18a2.22,2.22,0,0,0,2.6-1.87,8.71,8.71,0,0,0-.26-4.07,10.16,10.16,0,0,0-11.15-7,9.74,9.74,0,0,0-5,2.47A10.94,10.94,0,0,0,.66,12.45a7.91,7.91,0,0,0-.33,3.17,5.09,5.09,0,0,0,1.72,3.2c2.14,1.77,5.11,1.94,7.55,2.36,4.57.78,7.51,3.4,7,7.4-.52,4.36-3.1,7.18-6.67,7.14-5.05-.06-8-6.13-6.12-8.58a2.79,2.79,0,0,0,.6-1.25,2.06,2.06,0,0,0-1.72-2.42,2.23,2.23,0,0,0-2.6,1.87A8.74,8.74,0,0,0,.4,29.42a9.65,9.65,0,0,0,1.31,2.72,10.32,10.32,0,0,0,4.42,3.62,10.29,10.29,0,0,0,5.42.69,9.6,9.6,0,0,0,5-2.47,10.93,10.93,0,0,0,3.1-4.92A7.92,7.92,0,0,0,20,25.89a5,5,0,0,0-1.72-3.19c-2.14-1.78-5.1-1.95-7.55-2.37-4.57-.78-7.51-3.4-7-7.4.51-4.36,3.09-7.17,6.66-7.13,5.05,0,8,6.12,6.12,8.58A2.71,2.71,0,0,0,15.88,15.62Z"/><path class="cls-2" d="M59.7,13.57V31.23H38.07V13.57h1.84v16H48v-16h1.84v16h8v-16Z"/><path class="cls-2" d="M78.87,26.51H69l-2.11,4.72H65L73,13.57h1.84L83,31.23H81ZM78.19,25,74,15.52,69.72,25Z"/><path class="cls-2" d="M103.1,13.57V31.23h-1.84v-16H90.09v16H88.25V13.57Z"/><path class="cls-2" d="M116.82,23.13h-4v8.1H111V13.57h1.82v7.92h4l6-7.92h2l-6.56,8.58,6.93,9.08h-2.14Z"/><path class="cls-2" d="M130,13.57h1.84V28.2l11.29-14.63h1.69V31.23H143V16.63l-11.3,14.6H130Z"/><path class="cls-2" d="M167.43,13.57V31.23h-1.84V23.08h-11v8.15h-1.87V13.57h1.87v7.87h11V13.57Z"/></g></g></svg>